<svg width="91" height="106" viewBox="0 0 91 106" fill="none" xmlns="http://www.w3.org/2000/svg">
<path fill-rule="evenodd" clip-rule="evenodd" d="M43.3015 0L43.3805 0.00136473C49.5129 0.10728 54.1927 0.928528 58.2042 3.22356C62.2098 5.51519 65.2891 9.12836 68.5309 14.2633L68.6208 14.4056L68.6874 14.5602C70.42 18.5804 71.6079 21.9297 72.1555 25.5176C72.6938 29.0444 72.5959 32.6812 71.9301 37.2984C72.6126 42.9491 72.8797 46.33 71.843 50.3516L71.8359 50.3791L71.8281 50.4064C71.0132 53.2545 69.848 55.356 67.965 57.0263C66.1587 58.6286 63.838 59.6944 61.0585 60.7779L60.7873 60.8837L60.4976 60.9135C59.1138 61.056 57.7719 61.1568 56.506 60.5654C55.8832 60.2746 55.3903 59.8726 54.9677 59.4747C54.6215 59.1488 54.2409 58.745 53.84 58.3196C53.7719 58.2473 53.7031 58.1744 53.6339 58.1011C53.1108 57.5476 52.9066 56.8953 52.8281 56.3893C52.7494 55.8809 52.7736 55.3752 52.8309 54.9297C52.9453 54.0407 53.2396 53.0452 53.5995 52.0573C54.3277 50.0588 55.4827 47.6716 56.6828 45.4041C57.8913 43.1205 59.1825 40.8892 60.2149 39.1824C60.7312 38.3288 61.1874 37.5987 61.5405 37.0527C61.7164 36.7808 61.8725 36.5457 62.001 36.36C62.0918 36.2287 62.2641 35.98 62.4394 35.7945C62.975 35.2278 63.6839 34.9236 64.2151 34.7533C64.808 34.5632 65.479 34.4462 66.1726 34.4076C66.7257 34.3768 67.3284 34.3943 67.952 34.4797C68.3044 31.2096 68.2768 28.617 67.9028 26.1666C67.4435 23.1568 66.4437 20.2392 64.8034 16.4179C61.7396 11.5886 59.1388 8.71441 56.068 6.95756C52.9871 5.19497 49.1756 4.4105 43.3852 4.30403C37.4392 4.64439 33.6219 5.5468 30.6883 7.30821C27.7752 9.05731 25.4771 11.8083 22.8986 16.4069C21.0008 20.3274 19.9822 23.3156 19.5744 26.325C19.2511 28.7111 19.2994 31.1994 19.6822 34.2829C20.398 34.0679 21.0748 33.94 21.7042 33.9423C22.4823 33.9451 23.2755 34.1421 23.9774 34.6576C24.5935 35.1101 24.9855 35.6963 25.2513 36.2377L25.3152 36.3406C25.3979 36.4742 25.5186 36.6694 25.6715 36.918C25.9772 37.4152 26.4117 38.126 26.9286 38.9832C27.9615 40.6958 29.3279 43 30.6544 45.3544C31.9745 47.6976 33.281 50.1361 34.1774 52.1033C34.6203 53.0753 35.0001 54.0117 35.2211 54.7995C35.3292 55.1848 35.4296 55.6381 35.4457 56.0939C35.4584 56.4505 35.4469 57.3599 34.7465 58.1011L34.6982 58.1522C34.0316 58.8581 33.0901 59.8552 31.5481 60.4733C29.9824 61.1009 28.0462 61.2534 25.4472 60.9058L25.0294 60.85L24.6635 60.6405C22.8917 59.626 21.4522 58.5504 20.0723 56.9759C18.7264 55.4403 17.4977 53.4981 16.0531 50.8425L15.9227 50.6027L15.8563 50.338C15.186 47.6655 14.8658 45.512 14.8889 43.3608C14.9105 41.3436 15.2334 39.4224 15.7514 37.1928C15.0605 32.825 14.8344 29.2681 15.3115 25.7474C15.805 22.1056 17.031 18.6459 19.0555 14.4727L19.0829 14.4162L19.1135 14.3614C21.8565 9.45825 24.613 5.93821 28.4738 3.62006C32.3127 1.31507 36.9839 0.355229 43.2226 0.00443616L43.3015 0ZM19.7956 38.8132C19.4063 40.5899 19.2056 41.9991 19.1905 43.4069C19.1733 45.0104 19.3965 46.7104 19.9636 49.0276C21.2947 51.4552 22.3099 53.0023 23.3074 54.1405C24.2184 55.1799 25.1619 55.9318 26.4353 56.6933C28.3571 56.9084 29.3661 56.7133 29.9476 56.4802C30.3537 56.3174 30.6573 56.1008 31.0181 55.7591C30.8721 55.3018 30.621 54.6732 30.2627 53.8871C29.4446 52.0915 28.211 49.7817 26.9064 47.466C25.6081 45.1617 24.2652 42.8967 23.2448 41.2049C22.7351 40.3598 22.3071 39.6595 22.0068 39.1712C21.8567 38.927 21.7386 38.736 21.6583 38.6063L21.5669 38.459L21.5368 38.4107L21.4649 38.2954L21.4531 38.2697C21.3093 38.295 21.1031 38.3436 20.8187 38.4341C20.5289 38.5263 20.1913 38.6511 19.7956 38.8132ZM67.778 38.8164C67.3243 38.7126 66.8537 38.6783 66.4115 38.7029C66.0315 38.724 65.7272 38.7861 65.5286 38.8498C65.5201 38.8525 65.5119 38.8552 65.5042 38.8578C65.4141 38.9896 65.2962 39.1672 65.1526 39.3893C64.8284 39.8904 64.3956 40.5826 63.8958 41.4088C62.8961 43.0617 61.6472 45.2204 60.485 47.4164C59.3143 49.6284 58.268 51.8103 57.6415 53.53C57.3241 54.4011 57.1526 55.0518 57.0977 55.4787C57.0967 55.4862 57.0958 55.4935 57.0949 55.5006C57.4462 55.8728 57.6943 56.1333 57.9164 56.3424C58.1856 56.5958 58.2942 56.6527 58.3265 56.6678L58.3288 56.6688C58.3737 56.6901 58.551 56.7739 59.7706 56.6622C62.3531 55.6432 63.9643 54.8246 65.1103 53.8081C66.2152 52.8279 67.0277 51.5328 67.6844 49.2504C68.4416 46.2953 68.3549 43.7833 67.778 38.8164Z" fill="#4854A2"/>
<path d="M71.6294 83.6193V80.3684H91.0002V83.6193H83.1908V105.398H79.4266V83.6193H71.6294Z" fill="#4854A2"/>
<path d="M64.3667 86.9435C64.2364 85.7866 63.6986 84.8903 62.7535 84.2548C61.8084 83.6112 60.6189 83.2893 59.1849 83.2893C58.1583 83.2893 57.2702 83.4523 56.5206 83.7782C55.7711 84.0959 55.1885 84.5359 54.773 85.0981C54.3656 85.6521 54.1619 86.2836 54.1619 86.9924C54.1619 87.5872 54.3004 88.1005 54.5774 88.5323C54.8626 88.9641 55.2333 89.3267 55.6896 89.62C56.154 89.9051 56.651 90.1455 57.1806 90.341C57.7102 90.5284 58.2194 90.6832 58.7083 90.8054L61.1525 91.441C61.951 91.6365 62.7698 91.9013 63.609 92.2353C64.4482 92.5694 65.2263 93.0094 65.9433 93.5552C66.6603 94.1011 67.2387 94.7774 67.6787 95.584C68.1268 96.3906 68.3509 97.3561 68.3509 98.4804C68.3509 99.8981 67.9842 101.157 67.251 102.257C66.5258 103.357 65.4707 104.224 64.0856 104.86C62.7087 105.495 61.0425 105.813 59.0871 105.813C57.2132 105.813 55.5918 105.516 54.223 104.921C52.8542 104.326 51.7828 103.483 51.0088 102.391C50.2348 101.291 49.8071 99.9877 49.7256 98.4804H53.5142C53.5875 99.3848 53.8808 100.138 54.3941 100.741C54.9156 101.336 55.5796 101.78 56.3862 102.073C57.201 102.359 58.0931 102.501 59.0627 102.501C60.13 102.501 61.0792 102.334 61.9102 102C62.7494 101.658 63.4094 101.185 63.8901 100.582C64.3708 99.9714 64.6111 99.2585 64.6111 98.4438C64.6111 97.7023 64.3993 97.0954 63.9756 96.6228C63.5601 96.1502 62.9939 95.7592 62.2769 95.4495C61.568 95.1399 60.7655 94.867 59.8693 94.6307L56.9117 93.8241C54.9074 93.2782 53.3187 92.4757 52.1454 91.4165C50.9803 90.3573 50.3978 88.956 50.3978 87.2124C50.3978 85.7703 50.7888 84.5115 51.571 83.436C52.3532 82.3605 53.4123 81.5254 54.7485 80.9306C56.0847 80.3277 57.592 80.0262 59.2704 80.0262C60.9651 80.0262 62.4602 80.3236 63.7557 80.9184C65.0593 81.5132 66.0859 82.332 66.8354 83.3749C67.585 84.4096 67.9761 85.5992 68.0087 86.9435H64.3667Z" fill="#4854A2"/>
<path d="M45.2158 80.3684V105.398H41.4395V80.3684H45.2158Z" fill="#4854A2"/>
<path d="M22.0137 105.398V80.3684H25.7901V102.147H37.1314V105.398H22.0137Z" fill="#4854A2"/>
<path d="M0 105.398V80.3684H8.92156C10.8688 80.3684 12.482 80.7228 13.7612 81.4317C15.0404 82.1405 15.9977 83.1101 16.6332 84.3403C17.2687 85.5625 17.5865 86.9394 17.5865 88.4711C17.5865 90.011 17.2646 91.3961 16.621 92.6264C15.9855 93.8485 15.0241 94.8181 13.7368 95.5351C12.4576 96.2439 10.8485 96.5983 8.90934 96.5983H2.77424V93.3963H8.56714C9.79742 93.3963 10.7955 93.1845 11.5614 92.7608C12.3272 92.329 12.8894 91.7424 13.2479 91.001C13.6064 90.2595 13.7856 89.4163 13.7856 88.4711C13.7856 87.526 13.6064 86.6868 13.2479 85.9535C12.8894 85.2203 12.3232 84.6459 11.5491 84.2303C10.7833 83.8148 9.77298 83.6071 8.51826 83.6071H3.77639V105.398H0Z" fill="#4854A2"/>
</svg>
