<svg width="100" height="100" color="#4854a2" viewBox="0 0 25 24" fill="none" xmlns="http://www.w3.org/2000/svg">
<path fill-rule="evenodd" clip-rule="evenodd" d="M12.7524 3L12.7852 3.00057C14.5639 3.03144 15.9581 3.27101 17.1623 3.96335C18.3603 4.65206 19.2657 5.72933 20.2001 7.21675L20.2337 7.27015L20.2584 7.32783C20.7576 8.49166 21.1047 9.47242 21.2649 10.527C21.4216 11.5587 21.3931 12.6179 21.2035 13.9483C21.3974 15.5636 21.4764 16.5622 21.1719 17.7489L21.1694 17.759L21.1665 17.769C20.9271 18.6097 20.5786 19.2517 20.0002 19.7673C19.449 20.2586 18.7479 20.5788 17.9473 20.8924L17.8362 20.9359L17.7169 20.9483C17.3269 20.9886 16.869 21.03 16.4313 20.8246C16.2188 20.7248 16.0566 20.5898 15.9283 20.4684C15.8238 20.3696 15.7094 20.2476 15.5949 20.1255C15.5756 20.1049 15.5562 20.0842 15.5369 20.0637C15.3497 19.8646 15.2819 19.6369 15.2566 19.4726C15.2308 19.3057 15.2392 19.1435 15.2568 19.0063C15.2918 18.7324 15.3809 18.432 15.486 18.1424C15.6989 17.5552 16.0346 16.8587 16.3801 16.2028C16.7286 15.5409 17.1007 14.8948 17.3982 14.4006C17.5469 14.1534 17.6788 13.9413 17.7814 13.782C17.8324 13.7027 17.8783 13.6332 17.9167 13.5773L17.9186 13.5746C17.9436 13.5383 18.0004 13.4557 18.0619 13.3903C18.2533 13.1869 18.5012 13.0827 18.6723 13.0276C18.8666 12.965 19.082 12.9277 19.301 12.9155C19.4002 12.9099 19.5047 12.9093 19.6127 12.9148C19.6906 12.0775 19.6762 11.4016 19.5792 10.7633C19.4512 9.91991 19.1726 9.09792 18.7081 8.00902C17.8382 6.63335 17.1167 5.84413 16.2875 5.36741C15.4595 4.89136 14.4211 4.66827 12.7871 4.63722C11.1055 4.73475 10.0641 4.99054 9.2764 5.46585C8.49231 5.93895 7.8554 6.69236 7.12253 8.00482C6.58465 9.12218 6.30095 9.96385 6.18737 10.8062C6.10537 11.4143 6.10839 12.0492 6.19099 12.8193C6.31836 12.7945 6.44364 12.7805 6.56562 12.781C6.83691 12.782 7.12076 12.8521 7.3703 13.0362C7.58157 13.1922 7.71108 13.3883 7.79502 13.5579L7.80863 13.5799C7.83246 13.6186 7.86719 13.6751 7.91114 13.7469C7.99903 13.8906 8.12392 14.0959 8.27247 14.3434C8.5692 14.8378 8.96206 15.5035 9.34366 16.1841C9.72292 16.8606 10.1007 17.5688 10.361 18.1429C10.4892 18.4257 10.6025 18.7053 10.6695 18.9451C10.7021 19.0619 10.7346 19.2068 10.7399 19.3568C10.7438 19.4668 10.7447 19.791 10.4883 20.0637C10.4823 20.0701 10.4761 20.0767 10.4698 20.0834C10.2795 20.2861 9.97982 20.6053 9.48731 20.8037C8.98043 21.0079 8.3731 21.0487 7.6017 20.9451L7.4304 20.9221L7.28202 20.8367C6.75595 20.534 6.32213 20.2089 5.90761 19.7336C5.50678 19.274 5.14635 18.6992 4.73027 17.9306L4.68207 17.8415L4.6577 17.7439C4.46331 16.9651 4.36854 16.3299 4.37534 15.6916C4.38161 15.1032 4.47407 14.5451 4.61975 13.9101C4.42423 12.6578 4.35937 11.624 4.498 10.596C4.64271 9.52284 5.00204 8.50768 5.58732 7.29529L5.59751 7.27418L5.60893 7.25367C6.40078 5.83125 7.21271 4.77867 8.3703 4.08021C9.5232 3.38457 10.9136 3.1039 12.7198 3.00185L12.7524 3ZM6.22702 14.5183C6.13102 14.9765 6.08262 15.3439 6.07874 15.7084C6.07405 16.1478 6.13389 16.6177 6.29036 17.2652C6.66426 17.9487 6.94442 18.3744 7.21339 18.6828C7.446 18.9495 7.68539 19.1457 8.00892 19.3447C8.4932 19.3933 8.72008 19.3384 8.82856 19.2947C8.87973 19.2741 8.9233 19.2496 8.9723 19.2115C8.93199 19.1014 8.87472 18.9628 8.79922 18.7963C8.56789 18.2861 8.21725 17.626 7.84385 16.96C7.47279 16.2982 7.08871 15.6472 6.79666 15.1606C6.65083 14.9176 6.52837 14.7163 6.44251 14.576C6.41633 14.5332 6.39356 14.4961 6.37457 14.4652C6.33051 14.4797 6.28154 14.4973 6.22702 14.5183ZM19.5596 14.5512C19.5062 14.5468 19.4525 14.5461 19.3999 14.549C19.3537 14.5516 19.3142 14.5567 19.2823 14.5626C19.2667 14.5862 19.2493 14.6129 19.2302 14.6426C19.1386 14.785 19.0155 14.9827 18.8729 15.2196C18.5877 15.6935 18.2314 16.3124 17.9001 16.9414C17.5657 17.5763 17.2702 18.1965 17.0947 18.6806C17.0231 18.8779 16.9804 19.0288 16.9593 19.1352C17.0269 19.2067 17.0775 19.2589 17.1235 19.3025C17.1437 19.3216 17.1589 19.3349 17.1697 19.344C17.217 19.346 17.2905 19.3438 17.4167 19.3327C18.1307 19.0479 18.5496 18.828 18.8415 18.5678C19.1197 18.3198 19.3381 17.9834 19.5205 17.3473C19.7218 16.5566 19.7088 15.8795 19.5596 14.5512Z" fill="currentColor"/>
</svg>
