<svg width="92" height="26" viewBox="0 0 92 26" fill="none" xmlns="http://www.w3.org/2000/svg">
<g clip-path="url(#clip0_364_1245)">
<path d="M0 25.5146V0.485382H8.92156C10.8688 0.485382 12.482 0.839801 13.7612 1.54864C15.0404 2.25747 15.9977 3.22703 16.6332 4.45731C17.2687 5.67944 17.5865 7.05638 17.5865 8.58811C17.5865 10.128 17.2646 11.5131 16.621 12.7434C15.9855 13.9655 15.0241 14.935 13.7368 15.652C12.4576 16.3609 10.8485 16.7153 8.90934 16.7153H2.77424V13.5133H8.56714C9.79742 13.5133 10.7955 13.3015 11.5614 12.8778C12.3272 12.446 12.8894 11.8594 13.2479 11.1179C13.6064 10.3765 13.7856 9.53323 13.7856 8.58811C13.7856 7.643 13.6064 6.8038 13.2479 6.07052C12.8894 5.33724 12.3232 4.76284 11.5491 4.34732C10.7833 3.93179 9.77298 3.72403 8.51826 3.72403H3.77639V25.5146H0Z" fill="#4854A2"/>
<path d="M21.9663 25.5146V0.485382H25.7427V22.2638H37.0841V25.5146H21.9663Z" fill="#4854A2"/>
<path d="M45.2407 0.485382V25.5146H41.4644V0.485382H45.2407Z" fill="#4854A2"/>
<path d="M64.2617 7.02377C64.1314 5.86682 63.5936 4.97059 62.6485 4.33508C61.7034 3.69143 60.5139 3.3696 59.0799 3.3696C58.0533 3.3696 57.1652 3.53255 56.4157 3.85845C55.6661 4.1762 55.0835 4.61617 54.668 5.17835C54.2606 5.73239 54.0569 6.36382 54.0569 7.07266C54.0569 7.66743 54.1955 8.18072 54.4725 8.61254C54.7576 9.04436 55.1283 9.40693 55.5846 9.70024C56.049 9.9854 56.546 10.2258 57.0756 10.4213C57.6052 10.6087 58.1144 10.7635 58.6033 10.8857L61.0475 11.5212C61.846 11.7168 62.6648 11.9816 63.504 12.3156C64.3432 12.6497 65.1213 13.0896 65.8383 13.6355C66.5553 14.1814 67.1338 14.8576 67.5737 15.6642C68.0218 16.4708 68.2459 17.4363 68.2459 18.5607C68.2459 19.9784 67.8793 21.2372 67.146 22.3371C66.4208 23.437 65.3657 24.3047 63.9806 24.9402C62.6037 25.5757 60.9375 25.8935 58.9821 25.8935C57.1082 25.8935 55.4868 25.5961 54.118 25.0013C52.7493 24.4066 51.6779 23.5633 50.9038 22.4715C50.1298 21.3716 49.7021 20.068 49.6206 18.5607H53.4092C53.4825 19.4651 53.7758 20.2187 54.2891 20.8216C54.8106 21.4164 55.4746 21.8604 56.2812 22.1538C57.096 22.4389 57.9881 22.5815 58.9577 22.5815C60.025 22.5815 60.9742 22.4145 61.8053 22.0804C62.6445 21.7382 63.3044 21.2657 63.7851 20.6628C64.2658 20.0517 64.5062 19.3388 64.5062 18.524C64.5062 17.7826 64.2943 17.1756 63.8707 16.7031C63.4551 16.2305 62.8889 15.8394 62.1719 15.5298C61.4631 15.2202 60.6605 14.9473 59.7643 14.711L56.8067 13.9044C54.8024 13.3585 53.2137 12.556 52.0404 11.4968C50.8753 10.4376 50.2928 9.03622 50.2928 7.29264C50.2928 5.85053 50.6839 4.59173 51.466 3.51625C52.2482 2.44078 53.3074 1.60565 54.6436 1.01089C55.9798 0.407966 57.4871 0.106506 59.1655 0.106506C60.8601 0.106506 62.3552 0.403891 63.6507 0.998663C64.9543 1.59343 65.9809 2.41226 66.7305 3.45515C67.48 4.48989 67.8711 5.67943 67.9037 7.02377H64.2617Z" fill="#4854A2"/>
<path d="M72.626 3.73625V0.485382H91.9968V3.73625H84.1873V25.5146H80.4232V3.73625H72.626Z" fill="#4854A2"/>
</g>
<defs>
<clipPath id="clip0_364_1245">
<rect width="91.9967" height="26" fill="white"/>
</clipPath>
</defs>
</svg>
